<?xml version="1.0" encoding="UTF-8"?>
<svg width="16px" height="16px" viewBox="0 0 16 16" version="1.1" xmlns="http://www.w3.org/2000/svg" xmlns:xlink="http://www.w3.org/1999/xlink">
    <title>excellent</title>
    <g id="Page-1" stroke="none" stroke-width="1" fill="none" fill-rule="evenodd">
        <g id="main" transform="translate(-1140.000000, -164.000000)" fill="#F5A623" fill-rule="nonzero">
            <g id="Group-9" transform="translate(240.000000, 146.000000)">
                <g id="Group-4" transform="translate(744.000000, 16.000000)">
                    <g id="badge/excellent" transform="translate(156.000000, 2.000000)">
                        <path d="M15.9394026,5.26916678 C15.8161994,4.97009892 15.523392,4.77446203 15.2001837,4.77446203 L10.8944739,4.77446203 L8.71521825,0.407109131 C8.44401133,-0.135703044 7.55518865,-0.135703044 7.28398173,0.407109131 L5.10552614,4.77446203 L0.799816274,4.77446203 C0.476608026,4.77446203 0.183800555,4.97009892 0.0605974112,5.26916678 C-0.0626057326,5.56823464 0.00539600262,5.91460814 0.234201841,6.14311843 L3.90149542,9.81852612 L2.4310579,14.978048 C2.33905555,15.3011696 2.45745857,15.6475431 2.72786547,15.8455854 C2.99987241,16.0444294 3.36548174,16.0516455 3.64308883,15.8648284 L8,12.9543288 L12.3561112,15.8648284 C12.4905146,15.9546289 12.6449185,15.9995292 12.8001225,15.9995292 C12.9657267,15.9995292 13.1313309,15.9482146 13.2721345,15.8455854 C13.5425414,15.6475431 13.6609444,15.3011696 13.5689421,14.978048 L12.0985046,9.81852612 L15.7657982,6.14311843 C15.994604,5.91460814 16.0626057,5.56823464 15.9394026,5.26916678 Z" id="excellent"></path>
                    </g>
                </g>
            </g>
        </g>
    </g>
</svg>